PathFileType	4	(X/Y/Z)	TVC_20_BWA5_walk_RCNL2025.trc
DataRate	CameraRate	NumFrames	NumMarkers	Units	OrigDataRate	OrigDataStartFrame	OrigNumFrames
100	100	6	27	mm	100	193	220
Frame#	Time	R_Shoulder			L_Shoulder			C7			J_Notch			R_Elbow			L_Elbow			R_Wrist			L_Wrist			R_Asis			L_Asis			R_Psis			L_Psis			Sacral			Thoracic			Sternum			R_Thigh_Lateral			R_Knee_Lateral			R_Shank_Lateral			R_Ankle_Lateral			R_Heel			R_Toe			L_Thigh_Lateral			L_Knee_Lateral			L_Shank_Lateral			L_Ankle_Lateral			L_Heel			L_Toe		
		X1	Y1	Z1	X2	Y2	Z2	X3	Y3	Z3	X4	Y4	Z4	X5	Y5	Z5	X6	Y6	Z6	X7	Y7	Z7	X8	Y8	Z8	X9	Y9	Z9	X10	Y10	Z10	X11	Y11	Z11	X12	Y12	Z12	X13	Y13	Z13	X14	Y14	Z14	X15	Y15	Z15	X16	Y16	Z16	X17	Y17	Z17	X18	Y18	Z18	X19	Y19	Z19	X20	Y20	Z20	X21	Y21	Z21	X22	Y22	Z22	X23	Y23	Z23	X24	Y24	Z24	X25	Y25	Z25	X26	Y26	Z26	X27	Y27	Z27
193	1.92000000	525.005615	1397.667725	327.172516	485.267334	1408.368896	-39.477497	477.598236	1458.000610	155.505615	591.032166	1321.148071	145.578171	434.826202	1108.618164	450.325378	473.030701	1097.795776	-149.084869	580.049835	890.780121	446.256546	677.703400	936.580688	-128.436588	528.525024	998.371399	291.396973	522.103821	1008.026062	13.139143	373.870514	1001.304321	204.423080	357.969269	999.398987	116.859100	365.919891	1000.351654	160.641090	353.458252	1237.935059	154.788834	594.602173	1178.993896	138.290955	609.526428	685.493774	362.197113	680.741455	500.149231	284.722504	640.952698	318.683258	333.885895	628.307373	92.174622	250.382263	582.732727	66.860802	198.450684	772.614502	57.883072	237.047409	429.570129	642.704468	-43.377197	423.696472	482.600769	39.125164	357.965271	308.428711	-9.952882	306.175079	75.201698	86.177612	260.785400	67.830124	130.325409	445.565887	37.727303	104.034683
194	1.93000000	538.456848	1395.030151	327.150238	498.404114	1406.014771	-39.306011	490.562469	1455.431152	155.522598	604.124817	1318.449585	145.161224	446.544800	1106.219849	449.828766	491.153290	1095.914307	-150.412491	590.740021	887.671875	446.657379	697.726227	937.568451	-127.331791	542.749268	995.327759	290.855713	534.252075	1005.839172	12.440790	387.556152	998.448914	204.918823	370.881348	996.895874	117.568535	379.218750	997.672394	161.243679	366.643677	1235.422241	155.480743	607.588867	1176.257568	137.575424	620.315002	681.208069	360.667389	695.690308	498.437836	283.085846	664.615173	315.961853	333.089233	668.255371	88.849197	250.803802	624.524902	61.454338	198.473618	814.861206	60.580872	237.553314	437.942505	641.557068	-43.857391	429.488342	481.482300	38.759216	361.233093	308.282166	-10.149084	306.369263	75.607384	86.497375	261.144836	68.668854	130.725372	445.604858	37.771324	104.043175
195	1.94000000	552.005493	1392.300415	327.194244	511.604187	1403.558716	-39.038170	503.608276	1452.755981	155.623093	617.313965	1315.708984	144.738892	458.495453	1103.663208	449.357056	509.205933	1093.954712	-151.540237	601.637360	884.397552	446.965607	717.396332	938.220978	-126.098866	557.171753	992.156677	290.304199	546.470886	1003.610413	11.748468	401.402985	995.482483	205.497147	383.946472	994.296997	118.380852	392.674728	994.889740	161.938999	379.950256	1232.783813	156.278809	620.698303	1173.447388	136.930725	630.179993	676.204163	359.073181	710.173828	496.371246	281.482452	687.393311	313.496460	332.239624	706.936951	86.689659	251.128540	665.280273	57.571438	198.355057	855.651550	63.918930	237.981842	446.403137	640.424744	-44.385399	435.609711	480.359833	38.349697	364.744171	308.187561	-10.378082	306.636353	76.111984	86.795456	261.574493	69.710007	131.082977	445.643280	37.820705	104.034706
196	1.95000000	565.655029	1389.506470	327.316071	524.881165	1401.052979	-38.667587	516.752136	1450.014526	155.821350	630.603821	1312.975952	144.378952	470.697083	1100.972534	448.920593	527.121826	1091.950928	-152.444275	612.761200	880.981781	447.181870	736.678253	938.571045	-124.759281	571.802307	988.909851	289.730469	558.787598	1001.367432	11.057761	415.419983	992.453613	206.146027	397.187286	991.647095	119.282516	406.303635	992.050354	162.714272	393.394653	1230.057739	157.163635	633.955627	1170.612793	136.361801	639.742371	670.838684	357.598053	724.299622	494.031219	279.915405	709.300171	311.256744	331.309387	743.986816	85.528816	251.290451	704.588806	55.033501	198.033752	894.660034	67.791664	238.277374	454.974060	639.326172	-44.953590	442.069000	479.250641	37.890968	368.505188	308.161774	-10.638573	306.992706	76.744698	87.063667	262.081604	70.986320	131.387772	445.682251	37.868717	104.011963
197	1.96000000	579.409973	1386.676025	327.526917	538.249329	1398.549072	-38.189514	530.011292	1447.246826	156.130936	643.978577	1310.258057	144.177795	483.167542	1098.171631	448.527832	544.831116	1089.936035	-153.104401	624.132111	877.450104	447.308441	755.534149	938.653168	-123.336792	586.645508	985.639587	289.128510	571.234802	999.134521	10.367530	429.613861	989.411743	206.851074	410.625305	988.990234	120.255669	420.119583	989.200989	163.553371	406.992401	1227.283691	158.113754	647.385254	1167.801636	135.874176	649.650696	665.538269	356.440033	738.190491	491.508118	278.388184	730.341675	309.197296	330.268524	779.064270	85.137421	251.219437	742.024963	53.577438	197.455551	931.553223	72.055740	238.394653	463.684296	638.276123	-45.544121	448.880371	478.171570	37.376774	372.524292	308.224762	-10.928410	307.450745	77.539062	87.290283	262.671051	72.529282	131.624817	445.728363	37.918205	103.974274
198	1.97000000	593.275757	1383.836060	327.837219	551.723572	1396.097046	-37.601051	543.403198	1444.493286	156.564026	657.419434	1307.560913	144.207108	495.923553	1095.284058	448.184784	562.263123	1087.941162	-153.504745	635.771027	873.829254	447.349106	773.924225	938.501831	-121.856747	601.700684	982.399048	288.498596	583.849121	996.932983	9.680255	443.988739	986.406433	207.595718	424.280060	986.368958	121.278214	434.134399	986.387695	164.436966	420.757324	1224.502197	159.106537	661.010193	1165.059448	135.473846	660.440796	660.687927	355.733002	751.980286	488.897461	276.905090	750.510559	307.258636	329.086212	811.865356	85.244980	250.844986	777.159363	52.884727	196.577484	965.996643	76.513062	238.296799	472.566010	637.289062	-46.136486	456.064728	477.137054	36.799816	376.817139	308.397797	-11.248000	308.018890	78.532143	87.457390	263.346008	74.369522	131.772995	445.793518	37.979786	103.918350
